<svg xmlns="http://www.w3.org/2000/svg" xmlns:xlink="http://www.w3.org/1999/xlink" width="300" zoomAndPan="magnify" viewBox="0 0 224.87999 107.999999" height="144" preserveAspectRatio="xMidYMid meet" version="1.0"><defs><clipPath id="aa7425f197"><path d="M 0 0.0273438 L 224.761719 0.0273438 L 224.761719 107.96875 L 0 107.96875 Z M 0 0.0273438 " clip-rule="nonzero"/></clipPath><clipPath id="9fca8129e7"><path d="M 6 10.332031 L 65 10.332031 L 65 98.035156 L 6 98.035156 Z M 6 10.332031 " clip-rule="nonzero"/></clipPath></defs><g clip-path="url(#aa7425f197)"><path fill="#ffffff" d="M 0 0.0273438 L 224.878906 0.0273438 L 224.878906 107.972656 L 0 107.972656 Z M 0 0.0273438 " fill-opacity="1" fill-rule="nonzero"/><path fill="#ffffff" d="M 0 0.0273438 L 224.878906 0.0273438 L 224.878906 107.972656 L 0 107.972656 Z M 0 0.0273438 " fill-opacity="1" fill-rule="nonzero"/></g><g clip-path="url(#9fca8129e7)"><path fill="#007cc2" d="M 36.503906 10.332031 C 33.492188 10.261719 30.378906 10.617188 27.1875 11.414062 C 12.445312 15.109375 -4.054688 34.144531 13.964844 56.089844 L 24.71875 69.15625 L 27.753906 72.875 C 29.792969 75.304688 33.128906 75.261719 35.578125 73.234375 C 38.039062 71.199219 38.738281 67.859375 36.710938 65.386719 C 36.707031 65.382812 35.847656 64.339844 35.472656 63.886719 L 35.527344 63.886719 C 34.75 62.949219 34.578125 62.792969 33.777344 61.820312 C 29.882812 57.125 25.4375 51.699219 25.4375 51.699219 C 17.613281 42.167969 21.105469 30.394531 31.71875 23.707031 C 41.066406 17.8125 58.222656 19.917969 64.136719 29.59375 C 60.414062 18.5625 49.5625 10.628906 36.503906 10.332031 Z M 38.664062 33.363281 C 37.273438 33.316406 35.824219 33.847656 34.597656 34.863281 C 32.132812 36.902344 31.441406 40.246094 33.46875 42.710938 C 33.472656 42.71875 33.714844 43.023438 34.136719 43.539062 C 38.800781 49.164062 44.996094 56.707031 44.996094 56.707031 C 52.820312 66.238281 49.328125 77.960938 38.714844 84.648438 C 29.367188 90.539062 12.210938 88.429688 6.296875 78.761719 C 10.878906 92.332031 26.246094 101.207031 43.246094 96.941406 C 57.992188 93.238281 74.492188 74.261719 56.46875 52.320312 L 43.863281 37.03125 L 42.421875 35.222656 C 41.402344 34.007812 40.054688 33.414062 38.664062 33.363281 Z M 38.664062 33.363281 " fill-opacity="1" fill-rule="nonzero"/></g><path fill="#000000" d="M 94.242188 20.761719 C 84.910156 20.761719 74.226562 25.59375 74.226562 37.238281 C 74.226562 48.320312 83.007812 51.433594 91.722656 53.558594 C 100.539062 55.683594 109.269531 56.914062 109.269531 64.300781 C 109.269531 71.578125 101.800781 72.925781 96.300781 72.925781 C 89.042969 72.925781 82.203125 70.273438 81.894531 61.769531 L 73.09375 61.769531 C 73.605469 76.097656 83.753906 81.34375 95.789062 81.34375 C 106.683594 81.34375 118.636719 76.886719 118.636719 63.113281 C 118.636719 51.917969 109.902344 48.765625 101.085938 46.636719 C 92.894531 44.511719 83.539062 43.394531 83.539062 36.566406 C 83.539062 30.746094 89.671875 29.179688 94.964844 29.179688 C 100.777344 29.179688 106.792969 31.5 107.417969 38.890625 L 116.21875 38.890625 C 115.492188 24.785156 106.070312 20.761719 94.242188 20.761719 Z M 145.085938 20.761719 C 133.15625 20.761719 122.855469 25.804688 122.339844 40.128906 L 131.140625 40.128906 C 131.558594 31.625 137.054688 29.179688 144.519531 29.179688 C 150.125 29.179688 156.460938 30.503906 156.460938 38.789062 C 156.460938 45.953125 148.203125 45.292969 138.449219 47.308594 C 129.324219 49.210938 120.28125 52.027344 120.28125 65.125 C 120.28125 76.660156 128.28125 81.34375 138.039062 81.34375 C 145.5 81.34375 151.996094 78.511719 156.871094 72.355469 C 156.871094 78.621094 159.820312 81.34375 164.386719 81.34375 C 167.183594 81.34375 169.109375 80.75 170.664062 79.742188 L 170.664062 72.355469 C 169.523438 72.804688 168.710938 72.925781 167.988281 72.925781 C 165.1875 72.925781 165.207031 70.949219 165.207031 66.46875 L 165.207031 36.671875 C 165.207031 23.125 154.734375 20.761719 145.085938 20.761719 Z M 191.195312 20.761719 C 181.863281 20.761719 171.179688 25.59375 171.179688 37.238281 C 171.179688 48.320312 180.015625 51.433594 188.726562 53.558594 C 197.546875 55.683594 206.273438 56.914062 206.273438 64.300781 C 206.273438 71.578125 198.804688 72.925781 193.308594 72.925781 C 186.042969 72.925781 179.207031 70.273438 178.898438 61.769531 L 170.046875 61.769531 C 170.5625 76.097656 180.761719 81.34375 192.792969 81.34375 C 203.679688 81.34375 215.589844 76.886719 215.589844 63.113281 C 215.589844 51.917969 206.859375 48.765625 198.042969 46.636719 C 189.851562 44.511719 180.542969 43.394531 180.542969 36.566406 C 180.542969 30.746094 186.628906 29.179688 191.917969 29.179688 C 197.722656 29.179688 203.742188 31.5 204.371094 38.890625 L 213.222656 38.890625 C 212.5 24.785156 203.027344 20.761719 191.195312 20.761719 Z M 156.359375 50.097656 L 156.359375 59.859375 C 156.359375 65.121094 151.613281 72.925781 139.992188 72.925781 C 134.605469 72.925781 129.597656 70.675781 129.597656 64.402344 C 129.597656 57.351562 134.597656 55.144531 140.40625 54.023438 C 146.316406 52.90625 152.9375 52.785156 156.359375 50.097656 Z M 69.027344 75.457031 C 67.167969 75.457031 65.578125 76.90625 65.578125 78.863281 C 65.578125 80.832031 67.167969 82.273438 69.027344 82.273438 C 70.871094 82.273438 72.421875 80.832031 72.421875 78.863281 C 72.421875 76.90625 70.871094 75.457031 69.027344 75.457031 Z M 215.488281 75.457031 C 213.621094 75.457031 212.039062 76.910156 212.039062 78.863281 C 212.039062 80.832031 213.621094 82.273438 215.488281 82.273438 C 217.328125 82.273438 218.933594 80.832031 218.933594 78.863281 C 218.933594 76.910156 217.328125 75.457031 215.488281 75.457031 Z M 69.027344 76.023438 C 70.554688 76.023438 71.753906 77.246094 71.753906 78.863281 C 71.753906 80.496094 70.554688 81.703125 69.027344 81.703125 C 67.472656 81.703125 66.25 80.496094 66.25 78.863281 C 66.25 77.246094 67.472656 76.023438 69.027344 76.023438 Z M 215.488281 76.023438 C 217.015625 76.023438 218.265625 77.25 218.265625 78.863281 C 218.265625 80.5 217.015625 81.703125 215.488281 81.703125 C 213.929688 81.703125 212.757812 80.5 212.757812 78.863281 C 212.757812 77.25 213.929688 76.023438 215.488281 76.023438 Z M 67.6875 76.902344 L 67.6875 80.828125 L 68.308594 80.828125 L 68.308594 79.121094 L 68.976562 79.121094 L 70.003906 80.828125 L 70.675781 80.828125 L 69.542969 79.070312 C 70.121094 79.003906 70.570312 78.742188 70.570312 78.039062 C 70.570312 77.261719 70.113281 76.902344 69.183594 76.902344 Z M 214.199219 76.902344 L 214.199219 80.828125 L 214.765625 80.828125 L 214.765625 79.121094 L 215.488281 79.121094 L 216.515625 80.828125 L 217.183594 80.828125 L 216.054688 79.070312 C 216.621094 79.007812 217.082031 78.742188 217.082031 78.039062 C 217.082031 77.261719 216.617188 76.902344 215.691406 76.902344 Z M 68.308594 77.417969 L 69.128906 77.417969 C 69.539062 77.417969 69.953125 77.5 69.953125 77.988281 C 69.953125 78.585938 69.535156 78.605469 69.027344 78.605469 L 68.308594 78.605469 Z M 214.765625 77.417969 L 215.589844 77.417969 C 216.003906 77.417969 216.464844 77.496094 216.464844 77.988281 C 216.464844 78.585938 215.992188 78.605469 215.488281 78.605469 L 214.765625 78.605469 Z M 214.765625 77.417969 " fill-opacity="1" fill-rule="nonzero"/></svg>